<svg width="24" height="24" viewBox="0 0 24 24" fill="none" xmlns="http://www.w3.org/2000/svg">
<path d="M15.2188 4.5C15.7917 4.5 16.2734 4.68229 16.6641 5.04688C17.0547 5.41146 17.25 5.85417 17.25 6.375V8.71875L21.708 5.88184C21.874 5.79395 22.0547 5.75 22.25 5.75C22.5885 5.75 22.875 5.86719 23.1094 6.10156C23.3698 6.33594 23.5 6.63542 23.5 7V17C23.5 17.3646 23.3698 17.6641 23.1094 17.8984C22.875 18.1328 22.5885 18.25 22.25 18.25C22.0547 18.25 21.874 18.2061 21.708 18.1182L17.25 15.2812V17.625C17.25 18.1458 17.0547 18.5885 16.6641 18.9531C16.2734 19.3177 15.7917 19.5 15.2188 19.5H3.03125C2.45833 19.5 1.97656 19.3177 1.58594 18.9531C1.19531 18.5885 1 18.1458 1 17.625V6.375C1 5.85417 1.19531 5.41146 1.58594 5.04688C1.97656 4.68229 2.45833 4.5 3.03125 4.5H15.2188ZM3.03125 5.75C2.82292 5.75 2.64062 5.8151 2.48438 5.94531C2.32812 6.04948 2.25 6.19271 2.25 6.375V17.625C2.25 17.8073 2.32813 17.9635 2.48438 18.0938C2.64062 18.1979 2.82292 18.25 3.03125 18.25H15.2188C15.4271 18.25 15.6094 18.1979 15.7656 18.0938C15.9219 17.9635 16 17.8073 16 17.625V6.375C16 6.19271 15.9219 6.04948 15.7656 5.94531C15.6094 5.8151 15.4271 5.75 15.2188 5.75H3.03125ZM17.25 10.2031V13.7969L22.2109 16.9609L22.25 17V7L17.25 10.2031ZM10.1367 15.9316H8.42188V11.3418C8.42188 11.2152 8.42404 11.0594 8.42773 10.875C8.43143 10.6872 8.43695 10.4958 8.44434 10.3008C8.45173 10.102 8.45843 9.9227 8.46582 9.76367C8.42498 9.81076 8.34215 9.89245 8.2168 10.0078C8.09481 10.1199 7.98026 10.2212 7.87305 10.3115L6.94043 11.0439L6.11328 10.0342L8.72754 8H10.1367V15.9316Z" fill="black"/>
</svg>
