<svg width="24" height="24" viewBox="0 0 24 24" fill="none" xmlns="http://www.w3.org/2000/svg">
<path d="M14.9023 4.5C15.4625 4.5 15.9345 4.68229 16.3164 5.04688C16.6982 5.41142 16.8887 5.85427 16.8887 6.375V8.71875L21.0898 5.98438C21.2934 5.82821 21.5229 5.75009 21.7773 5.75C22.1084 5.75 22.389 5.86719 22.6182 6.10156C22.8728 6.33593 23 6.63544 23 7V17C23 17.3646 22.8728 17.6641 22.6182 17.8984C22.389 18.1328 22.1084 18.25 21.7773 18.25C21.5229 18.2499 21.2934 18.1718 21.0898 18.0156L16.8887 15.2812V17.625C16.8887 18.1457 16.6982 18.5886 16.3164 18.9531C15.9345 19.3177 15.4625 19.5 14.9023 19.5H2.98633C2.42623 19.5 1.95516 19.3176 1.57324 18.9531C1.1913 18.5885 1 18.1458 1 17.625V6.375C1 5.85417 1.1913 5.41146 1.57324 5.04688C1.95516 4.6824 2.42623 4.5 2.98633 4.5H14.9023ZM2.98633 5.75C2.78262 5.75 2.60395 5.8151 2.45117 5.94531C2.29849 6.04947 2.22266 6.19277 2.22266 6.375V17.625C2.22266 17.8072 2.29848 17.9636 2.45117 18.0938C2.60395 18.1979 2.78262 18.25 2.98633 18.25H14.9023C15.106 18.25 15.2847 18.1979 15.4375 18.0938C15.5903 17.9635 15.667 17.8073 15.667 17.625V6.375C15.667 6.19271 15.5903 6.04948 15.4375 5.94531C15.2847 5.8151 15.106 5.75 14.9023 5.75H2.98633ZM16.8887 10.2031V13.7969L21.7393 16.9609L21.7773 17V7L16.8887 10.2031ZM8.88867 8C9.41971 8.00002 9.875 8.09431 10.2549 8.28223C10.6384 8.47018 10.934 8.72649 11.1406 9.05176C11.3472 9.37349 11.4502 9.73899 11.4502 10.1475C11.4502 10.585 11.3616 10.9851 11.1846 11.3467C11.0075 11.7081 10.7494 12.0658 10.4102 12.4199C10.0745 12.7743 9.66827 13.1664 9.19238 13.5967L8.15234 14.5566V14.6328H11.6777V16.043H6.02246V14.877L8.05273 12.8652C8.46222 12.4531 8.79092 12.1088 9.03809 11.834C9.28875 11.5558 9.46944 11.3029 9.58008 11.0752C9.69444 10.8474 9.75195 10.6031 9.75195 10.3428C9.75192 10.0283 9.6612 9.79314 9.48047 9.6377C9.30341 9.47871 9.06532 9.39941 8.7666 9.39941C8.45309 9.39944 8.14858 9.46937 7.85352 9.61035C7.5584 9.75136 7.25063 9.95257 6.92969 10.2129L6 9.13379C6.23241 8.93854 6.4781 8.75363 6.73633 8.58008C6.99816 8.40664 7.30064 8.26789 7.64355 8.16309C7.99032 8.05462 8.40541 8 8.88867 8Z" fill="black"/>
</svg>
