<svg width="24" height="24" viewBox="0 0 24 24" fill="none" xmlns="http://www.w3.org/2000/svg">
<path d="M14.9023 4.5C15.4625 4.5 15.9345 4.68229 16.3164 5.04688C16.6982 5.41142 16.8887 5.85427 16.8887 6.375V8.71875L21.0898 5.98438C21.2934 5.82821 21.5229 5.75009 21.7773 5.75C22.1084 5.75 22.389 5.86719 22.6182 6.10156C22.8728 6.33593 23 6.63544 23 7V17C23 17.3646 22.8728 17.6641 22.6182 17.8984C22.389 18.1328 22.1084 18.25 21.7773 18.25C21.5229 18.2499 21.2934 18.1718 21.0898 18.0156L16.8887 15.2812V17.625C16.8887 18.1457 16.6982 18.5886 16.3164 18.9531C15.9345 19.3177 15.4625 19.5 14.9023 19.5H2.98633C2.42623 19.5 1.95516 19.3176 1.57324 18.9531C1.1913 18.5885 1 18.1458 1 17.625V6.375C1 5.85417 1.1913 5.41146 1.57324 5.04688C1.95516 4.6824 2.42623 4.5 2.98633 4.5H14.9023ZM2.98633 5.75C2.78262 5.75 2.60395 5.8151 2.45117 5.94531C2.29849 6.04947 2.22266 6.19277 2.22266 6.375V17.625C2.22266 17.8072 2.29848 17.9636 2.45117 18.0938C2.60395 18.1979 2.78262 18.25 2.98633 18.25H14.9023C15.106 18.25 15.2847 18.1979 15.4375 18.0938C15.5903 17.9635 15.667 17.8073 15.667 17.625V6.375C15.667 6.19271 15.5903 6.04948 15.4375 5.94531C15.2847 5.8151 15.106 5.75 14.9023 5.75H2.98633ZM16.8887 10.2031V13.7969L21.7393 16.9609L21.7773 17V7L16.8887 10.2031ZM8.96289 8C9.73771 8 10.3521 8.16266 10.8047 8.4873C11.257 8.81193 11.4834 9.27026 11.4834 9.8623C11.4834 10.2226 11.4115 10.5349 11.2676 10.7988C11.1236 11.0628 10.9275 11.2786 10.6807 11.4463C10.4374 11.6138 10.1633 11.737 9.8584 11.8154V11.8477C10.4617 11.9262 10.9195 12.119 11.2314 12.4258C11.5467 12.7325 11.7041 13.1427 11.7041 13.6562C11.7041 14.1129 11.5959 14.5215 11.3799 14.8818C11.1673 15.242 10.8382 15.5255 10.3926 15.7324C9.94692 15.9393 9.37263 16.043 8.66992 16.043C8.25518 16.043 7.86772 16.0069 7.50781 15.9355C7.15134 15.8678 6.81535 15.7628 6.5 15.6201V14.2129C6.82215 14.3841 7.15971 14.5143 7.5127 14.6035C7.86564 14.6891 8.195 14.7324 8.5 14.7324C9.06909 14.7324 9.46708 14.6301 9.69336 14.4268C9.92306 14.2198 10.0381 13.9306 10.0381 13.5596C10.038 13.3422 9.98508 13.1585 9.87891 13.0088C9.77263 12.859 9.58723 12.7445 9.32324 12.666C9.06269 12.5876 8.69715 12.5488 8.22754 12.5488H7.65723V11.2803H8.23828C8.70084 11.2803 9.05203 11.2356 9.29199 11.1465C9.53522 11.0538 9.70037 10.9293 9.78613 10.7725C9.87521 10.612 9.91986 10.4297 9.91992 10.2266C9.91992 9.94829 9.83741 9.73021 9.67285 9.57324C9.50834 9.41638 9.23428 9.33795 8.85059 9.33789C8.61072 9.33789 8.39115 9.37042 8.19238 9.43457C7.99696 9.49522 7.81982 9.56999 7.66211 9.65918C7.50467 9.74467 7.36594 9.82823 7.24609 9.91016L6.51074 8.77051C6.80548 8.54945 7.14987 8.36593 7.54395 8.21973C7.94154 8.07349 8.41452 8.00004 8.96289 8Z" fill="black"/>
</svg>
